<svg width="1920" height="1516" viewBox="0 0 1920 1516" fill="none" xmlns="http://www.w3.org/2000/svg">
<g clip-path="url(#clip0_25_5303)">
<rect width="1920" height="1516" fill="white"/>
<rect width="239.952" height="119.983" transform="matrix(0.700861 -0.713297 0.715327 0.69879 1480 1286.16)" fill="#EAA900"/>
<rect width="145.076" height="242.137" transform="matrix(0.926984 0.375101 -0.373826 0.927499 1711.52 341)" fill="#9F00EA"/>
<path d="M1835.96 873.016C1890.45 894.098 1968.41 823.85 1944.9 884.626C1921.39 945.401 1858.15 977.579 1803.66 956.497C1749.17 935.415 1724.06 869.057 1747.58 808.282C1771.09 747.506 1781.47 851.934 1835.96 873.016Z" fill="#005EEA"/>
<path d="M754.743 1231.76L928.721 1215.64L923.536 1281.61L754.743 1231.76Z" fill="#EA0000"/>
<rect x="588.709" y="165.789" width="264.004" height="88.0014" transform="rotate(-165.085 588.709 165.789)" fill="#EA0000"/>
<path d="M1742.6 68.7699L1722.47 140.289L1784.27 181.535L1710.03 184.491L1689.9 256.011L1664.14 186.318L1589.9 189.273L1648.23 143.245L1622.48 73.5524L1684.27 114.798L1742.6 68.7699Z" fill="#05EA00"/>
<path d="M807.868 67.8772L1099.25 146.627L1050.71 250.32L807.868 67.8772Z" fill="#EAD300"/>
<path d="M1170.66 120.714L1181.27 29.4357L1255.25 76.2062L1263.69 -0.365977L1331.17 45.9907L1352.19 -36.7901" stroke="#005EEA" stroke-width="24"/>
<ellipse cx="329" cy="319.5" rx="106" ry="105.5" fill="#EAA900"/>
<path d="M737.056 89C737.056 118.271 784.194 142 751.392 142C718.591 142 692 118.271 692 89C692 59.7289 718.591 36 751.392 36C784.194 36 737.056 59.7289 737.056 89Z" fill="#9F00EA"/>
<circle cx="311" cy="1170" r="88" fill="#9F00EA"/>
<path d="M136.897 798C136.897 798 119.72 695.824 169.016 675.459C210.429 658.35 246.333 734.011 280.361 706.58C314.829 678.795 228.785 634.778 256.807 601.545C286.299 566.569 381 601.545 381 601.545" stroke="#005EEA" stroke-width="24"/>
<path d="M1107.71 1251.55L1157.67 1309.96L1228.66 1280.5L1188.54 1346.06L1238.49 1404.47L1163.74 1386.58L1123.63 1452.14L1117.55 1375.52L1042.8 1357.63L1113.79 1328.17L1107.71 1251.55Z" fill="#EAD300"/>
<path d="M433 1351.12C433 1351.12 583.321 1276.06 617.421 1315.4C636.156 1337.01 650.303 1363.19 633.525 1384.46C620.591 1400.86 601.918 1402.95 580.039 1399.09C533.706 1390.94 534.409 1326.43 553.008 1286.48C578.687 1231.33 715 1263.88 715 1263.88" stroke="#05EA00" stroke-width="24"/>
</g>
<defs>
<clipPath id="clip0_25_5303">
<rect width="1920" height="1516" fill="white"/>
</clipPath>
</defs>
</svg>
